ISO-10303-21;
HEADER;
/* Generated by software containing ST-Developer
 * from STEP Tools, Inc. (www.steptools.com) 
 */
/* OPTION: using custom renumber hook */

FILE_DESCRIPTION(
/* description */ ('STEP AP242 Edition 2',
'CAx-IF Rec.Pracs.---Representation and Presentation of Product Manufa
cturing Information (PMI)---4.0---2014-10-13',
'CAx-IF Rec.Pracs.---3D Tessellated Geometry---0.4---2014-09-14','2;1',
'CAx-IF Rec.Pracs.---User Defined Attributes---1.5---2016-08-15'),
/* implementation_level */ '2;1');

FILE_NAME(
/* name */ 'Part Studio 1 - Case Bottom',
/* time_stamp */ '2026-09-05T23:15:36Z',
/* author */ (''),
/* organization */ (''),
/* preprocessor_version */ 'ST-DEVELOPER v20',
/* originating_system */ 'ONSHAPE BY PTC INC, 1.220',
/* authorisation */ '  ');

FILE_SCHEMA (('AP242_MANAGED_MODEL_BASED_3D_ENGINEERING_MIM_LF { 1 0 10303 442 3 1 4 }'));
ENDSEC;

DATA;
#10=SHAPE_REPRESENTATION_RELATIONSHIP('','',#473,#11);
#11=ADVANCED_BREP_SHAPE_REPRESENTATION('',(#471),#769);
#12=CYLINDRICAL_SURFACE('',#495,0.00157894573791649);
#13=CYLINDRICAL_SURFACE('',#497,0.00157894573791648);
#14=CYLINDRICAL_SURFACE('',#507,0.00168994949366116);
#15=CYLINDRICAL_SURFACE('',#508,0.00168994949366116);
#16=CYLINDRICAL_SURFACE('',#509,0.00168994949366116);
#17=CYLINDRICAL_SURFACE('',#510,0.00168994949366116);
#18=CIRCLE('',#478,0.00157894573791649);
#19=CIRCLE('',#479,0.00157894573791648);
#20=CIRCLE('',#484,0.00168994949366116);
#21=CIRCLE('',#485,0.00168994949366116);
#22=CIRCLE('',#486,0.00168994949366116);
#23=CIRCLE('',#487,0.00168994949366116);
#24=CIRCLE('',#490,0.00157894573791649);
#25=CIRCLE('',#491,0.00157894573791648);
#26=CIRCLE('',#499,0.00168994949366116);
#27=CIRCLE('',#500,0.00168994949366116);
#28=CIRCLE('',#501,0.00168994949366116);
#29=CIRCLE('',#502,0.00168994949366116);
#30=ORIENTED_EDGE('',*,*,#158,.T.);
#31=ORIENTED_EDGE('',*,*,#159,.T.);
#32=ORIENTED_EDGE('',*,*,#160,.F.);
#33=ORIENTED_EDGE('',*,*,#161,.F.);
#34=ORIENTED_EDGE('',*,*,#162,.F.);
#35=ORIENTED_EDGE('',*,*,#163,.T.);
#36=ORIENTED_EDGE('',*,*,#164,.T.);
#37=ORIENTED_EDGE('',*,*,#165,.F.);
#38=ORIENTED_EDGE('',*,*,#166,.F.);
#39=ORIENTED_EDGE('',*,*,#167,.T.);
#40=ORIENTED_EDGE('',*,*,#168,.T.);
#41=ORIENTED_EDGE('',*,*,#169,.F.);
#42=ORIENTED_EDGE('',*,*,#170,.F.);
#43=ORIENTED_EDGE('',*,*,#171,.T.);
#44=ORIENTED_EDGE('',*,*,#172,.T.);
#45=ORIENTED_EDGE('',*,*,#173,.F.);
#46=ORIENTED_EDGE('',*,*,#174,.F.);
#47=ORIENTED_EDGE('',*,*,#175,.F.);
#48=ORIENTED_EDGE('',*,*,#176,.T.);
#49=ORIENTED_EDGE('',*,*,#177,.T.);
#50=ORIENTED_EDGE('',*,*,#178,.F.);
#51=ORIENTED_EDGE('',*,*,#179,.T.);
#52=ORIENTED_EDGE('',*,*,#180,.T.);
#53=ORIENTED_EDGE('',*,*,#181,.T.);
#54=ORIENTED_EDGE('',*,*,#182,.T.);
#55=ORIENTED_EDGE('',*,*,#183,.T.);
#56=ORIENTED_EDGE('',*,*,#184,.F.);
#57=ORIENTED_EDGE('',*,*,#185,.T.);
#58=ORIENTED_EDGE('',*,*,#186,.F.);
#59=ORIENTED_EDGE('',*,*,#187,.T.);
#60=ORIENTED_EDGE('',*,*,#188,.T.);
#61=ORIENTED_EDGE('',*,*,#189,.T.);
#62=ORIENTED_EDGE('',*,*,#180,.F.);
#63=ORIENTED_EDGE('',*,*,#190,.T.);
#64=ORIENTED_EDGE('',*,*,#170,.T.);
#65=ORIENTED_EDGE('',*,*,#191,.T.);
#66=ORIENTED_EDGE('',*,*,#186,.T.);
#67=ORIENTED_EDGE('',*,*,#192,.T.);
#68=ORIENTED_EDGE('',*,*,#182,.F.);
#69=ORIENTED_EDGE('',*,*,#193,.T.);
#70=ORIENTED_EDGE('',*,*,#194,.F.);
#71=ORIENTED_EDGE('',*,*,#195,.F.);
#72=ORIENTED_EDGE('',*,*,#162,.T.);
#73=ORIENTED_EDGE('',*,*,#196,.T.);
#74=ORIENTED_EDGE('',*,*,#197,.F.);
#75=ORIENTED_EDGE('',*,*,#198,.F.);
#76=ORIENTED_EDGE('',*,*,#161,.T.);
#77=ORIENTED_EDGE('',*,*,#199,.F.);
#78=ORIENTED_EDGE('',*,*,#200,.T.);
#79=ORIENTED_EDGE('',*,*,#201,.F.);
#80=ORIENTED_EDGE('',*,*,#163,.F.);
#81=ORIENTED_EDGE('',*,*,#195,.T.);
#82=ORIENTED_EDGE('',*,*,#202,.T.);
#83=ORIENTED_EDGE('',*,*,#203,.F.);
#84=ORIENTED_EDGE('',*,*,#164,.F.);
#85=ORIENTED_EDGE('',*,*,#201,.T.);
#86=ORIENTED_EDGE('',*,*,#204,.F.);
#87=ORIENTED_EDGE('',*,*,#196,.F.);
#88=ORIENTED_EDGE('',*,*,#165,.T.);
#89=ORIENTED_EDGE('',*,*,#203,.T.);
#90=ORIENTED_EDGE('',*,*,#200,.F.);
#91=ORIENTED_EDGE('',*,*,#194,.T.);
#92=ORIENTED_EDGE('',*,*,#204,.T.);
#93=ORIENTED_EDGE('',*,*,#202,.F.);
#94=ORIENTED_EDGE('',*,*,#198,.T.);
#95=ORIENTED_EDGE('',*,*,#205,.T.);
#96=ORIENTED_EDGE('',*,*,#173,.T.);
#97=ORIENTED_EDGE('',*,*,#206,.F.);
#98=ORIENTED_EDGE('',*,*,#158,.F.);
#99=ORIENTED_EDGE('',*,*,#197,.T.);
#100=ORIENTED_EDGE('',*,*,#207,.T.);
#101=ORIENTED_EDGE('',*,*,#174,.T.);
#102=ORIENTED_EDGE('',*,*,#205,.F.);
#103=ORIENTED_EDGE('',*,*,#199,.T.);
#104=ORIENTED_EDGE('',*,*,#160,.T.);
#105=ORIENTED_EDGE('',*,*,#208,.T.);
#106=ORIENTED_EDGE('',*,*,#175,.T.);
#107=ORIENTED_EDGE('',*,*,#207,.F.);
#108=ORIENTED_EDGE('',*,*,#172,.F.);
#109=ORIENTED_EDGE('',*,*,#209,.T.);
#110=ORIENTED_EDGE('',*,*,#178,.T.);
#111=ORIENTED_EDGE('',*,*,#210,.T.);
#112=ORIENTED_EDGE('',*,*,#184,.T.);
#113=ORIENTED_EDGE('',*,*,#211,.T.);
#114=ORIENTED_EDGE('',*,*,#188,.F.);
#115=ORIENTED_EDGE('',*,*,#212,.T.);
#116=ORIENTED_EDGE('',*,*,#176,.F.);
#117=ORIENTED_EDGE('',*,*,#208,.F.);
#118=ORIENTED_EDGE('',*,*,#213,.T.);
#119=ORIENTED_EDGE('',*,*,#214,.F.);
#120=ORIENTED_EDGE('',*,*,#215,.F.);
#121=ORIENTED_EDGE('',*,*,#216,.T.);
#122=ORIENTED_EDGE('',*,*,#217,.T.);
#123=ORIENTED_EDGE('',*,*,#206,.T.);
#124=ORIENTED_EDGE('',*,*,#167,.F.);
#125=ORIENTED_EDGE('',*,*,#218,.F.);
#126=ORIENTED_EDGE('',*,*,#215,.T.);
#127=ORIENTED_EDGE('',*,*,#219,.T.);
#128=ORIENTED_EDGE('',*,*,#166,.T.);
#129=ORIENTED_EDGE('',*,*,#220,.F.);
#130=ORIENTED_EDGE('',*,*,#216,.F.);
#131=ORIENTED_EDGE('',*,*,#218,.T.);
#132=ORIENTED_EDGE('',*,*,#169,.T.);
#133=ORIENTED_EDGE('',*,*,#221,.F.);
#134=ORIENTED_EDGE('',*,*,#213,.F.);
#135=ORIENTED_EDGE('',*,*,#159,.F.);
#136=ORIENTED_EDGE('',*,*,#217,.F.);
#137=ORIENTED_EDGE('',*,*,#220,.T.);
#138=ORIENTED_EDGE('',*,*,#168,.F.);
#139=ORIENTED_EDGE('',*,*,#219,.F.);
#140=ORIENTED_EDGE('',*,*,#214,.T.);
#141=ORIENTED_EDGE('',*,*,#221,.T.);
#142=ORIENTED_EDGE('',*,*,#190,.F.);
#143=ORIENTED_EDGE('',*,*,#179,.F.);
#144=ORIENTED_EDGE('',*,*,#209,.F.);
#145=ORIENTED_EDGE('',*,*,#171,.F.);
#146=ORIENTED_EDGE('',*,*,#191,.F.);
#147=ORIENTED_EDGE('',*,*,#177,.F.);
#148=ORIENTED_EDGE('',*,*,#212,.F.);
#149=ORIENTED_EDGE('',*,*,#187,.F.);
#150=ORIENTED_EDGE('',*,*,#192,.F.);
#151=ORIENTED_EDGE('',*,*,#189,.F.);
#152=ORIENTED_EDGE('',*,*,#211,.F.);
#153=ORIENTED_EDGE('',*,*,#183,.F.);
#154=ORIENTED_EDGE('',*,*,#193,.F.);
#155=ORIENTED_EDGE('',*,*,#185,.F.);
#156=ORIENTED_EDGE('',*,*,#210,.F.);
#157=ORIENTED_EDGE('',*,*,#181,.F.);
#158=EDGE_CURVE('',#222,#223,#264,.T.);
#159=EDGE_CURVE('',#223,#224,#265,.T.);
#160=EDGE_CURVE('',#225,#224,#266,.T.);
#161=EDGE_CURVE('',#222,#225,#267,.T.);
#162=EDGE_CURVE('',#226,#227,#268,.T.);
#163=EDGE_CURVE('',#226,#228,#269,.T.);
#164=EDGE_CURVE('',#228,#229,#270,.T.);
#165=EDGE_CURVE('',#227,#229,#271,.T.);
#166=EDGE_CURVE('',#230,#231,#272,.T.);
#167=EDGE_CURVE('',#230,#232,#273,.T.);
#168=EDGE_CURVE('',#232,#233,#274,.T.);
#169=EDGE_CURVE('',#231,#233,#275,.T.);
#170=EDGE_CURVE('',#234,#235,#276,.T.);
#171=EDGE_CURVE('',#234,#236,#277,.T.);
#172=EDGE_CURVE('',#236,#237,#278,.T.);
#173=EDGE_CURVE('',#238,#237,#18,.T.);
#174=EDGE_CURVE('',#239,#238,#279,.T.);
#175=EDGE_CURVE('',#240,#239,#19,.T.);
#176=EDGE_CURVE('',#240,#241,#280,.T.);
#177=EDGE_CURVE('',#241,#235,#281,.F.);
#178=EDGE_CURVE('',#242,#243,#282,.T.);
#179=EDGE_CURVE('',#242,#244,#283,.F.);
#180=EDGE_CURVE('',#244,#245,#284,.T.);
#181=EDGE_CURVE('',#245,#243,#285,.T.);
#182=EDGE_CURVE('',#246,#247,#286,.T.);
#183=EDGE_CURVE('',#247,#248,#287,.T.);
#184=EDGE_CURVE('',#249,#248,#288,.T.);
#185=EDGE_CURVE('',#249,#246,#289,.F.);
#186=EDGE_CURVE('',#250,#251,#290,.T.);
#187=EDGE_CURVE('',#250,#252,#291,.T.);
#188=EDGE_CURVE('',#252,#253,#292,.T.);
#189=EDGE_CURVE('',#253,#251,#293,.F.);
#190=EDGE_CURVE('',#244,#234,#20,.F.);
#191=EDGE_CURVE('',#235,#250,#21,.F.);
#192=EDGE_CURVE('',#251,#247,#22,.F.);
#193=EDGE_CURVE('',#246,#245,#23,.F.);
#194=EDGE_CURVE('',#254,#255,#294,.T.);
#195=EDGE_CURVE('',#226,#254,#295,.T.);
#196=EDGE_CURVE('',#227,#255,#296,.T.);
#197=EDGE_CURVE('',#256,#257,#297,.T.);
#198=EDGE_CURVE('',#222,#256,#24,.F.);
#199=EDGE_CURVE('',#257,#225,#25,.F.);
#200=EDGE_CURVE('',#254,#258,#298,.T.);
#201=EDGE_CURVE('',#228,#258,#299,.T.);
#202=EDGE_CURVE('',#258,#259,#300,.T.);
#203=EDGE_CURVE('',#229,#259,#301,.T.);
#204=EDGE_CURVE('',#255,#259,#302,.T.);
#205=EDGE_CURVE('',#256,#238,#303,.T.);
#206=EDGE_CURVE('',#223,#237,#304,.T.);
#207=EDGE_CURVE('',#257,#239,#305,.T.);
#208=EDGE_CURVE('',#224,#240,#306,.T.);
#209=EDGE_CURVE('',#236,#242,#26,.T.);
#210=EDGE_CURVE('',#243,#249,#27,.T.);
#211=EDGE_CURVE('',#248,#253,#28,.T.);
#212=EDGE_CURVE('',#252,#241,#29,.T.);
#213=EDGE_CURVE('',#224,#260,#307,.T.);
#214=EDGE_CURVE('',#261,#260,#308,.T.);
#215=EDGE_CURVE('',#262,#261,#309,.T.);
#216=EDGE_CURVE('',#262,#263,#310,.T.);
#217=EDGE_CURVE('',#263,#223,#311,.T.);
#218=EDGE_CURVE('',#262,#230,#312,.T.);
#219=EDGE_CURVE('',#261,#232,#313,.T.);
#220=EDGE_CURVE('',#263,#231,#314,.T.);
#221=EDGE_CURVE('',#260,#233,#315,.T.);
#222=VERTEX_POINT('',#640);
#223=VERTEX_POINT('',#641);
#224=VERTEX_POINT('',#643);
#225=VERTEX_POINT('',#645);
#226=VERTEX_POINT('',#649);
#227=VERTEX_POINT('',#650);
#228=VERTEX_POINT('',#652);
#229=VERTEX_POINT('',#654);
#230=VERTEX_POINT('',#657);
#231=VERTEX_POINT('',#658);
#232=VERTEX_POINT('',#660);
#233=VERTEX_POINT('',#662);
#234=VERTEX_POINT('',#666);
#235=VERTEX_POINT('',#667);
#236=VERTEX_POINT('',#669);
#237=VERTEX_POINT('',#671);
#238=VERTEX_POINT('',#673);
#239=VERTEX_POINT('',#675);
#240=VERTEX_POINT('',#677);
#241=VERTEX_POINT('',#679);
#242=VERTEX_POINT('',#683);
#243=VERTEX_POINT('',#684);
#244=VERTEX_POINT('',#686);
#245=VERTEX_POINT('',#688);
#246=VERTEX_POINT('',#692);
#247=VERTEX_POINT('',#693);
#248=VERTEX_POINT('',#695);
#249=VERTEX_POINT('',#697);
#250=VERTEX_POINT('',#701);
#251=VERTEX_POINT('',#702);
#252=VERTEX_POINT('',#704);
#253=VERTEX_POINT('',#706);
#254=VERTEX_POINT('',#715);
#255=VERTEX_POINT('',#716);
#256=VERTEX_POINT('',#721);
#257=VERTEX_POINT('',#722);
#258=VERTEX_POINT('',#726);
#259=VERTEX_POINT('',#730);
#260=VERTEX_POINT('',#748);
#261=VERTEX_POINT('',#750);
#262=VERTEX_POINT('',#752);
#263=VERTEX_POINT('',#754);
#264=LINE('',#639,#316);
#265=LINE('',#642,#317);
#266=LINE('',#644,#318);
#267=LINE('',#646,#319);
#268=LINE('',#648,#320);
#269=LINE('',#651,#321);
#270=LINE('',#653,#322);
#271=LINE('',#655,#323);
#272=LINE('',#656,#324);
#273=LINE('',#659,#325);
#274=LINE('',#661,#326);
#275=LINE('',#663,#327);
#276=LINE('',#665,#328);
#277=LINE('',#668,#329);
#278=LINE('',#670,#330);
#279=LINE('',#674,#331);
#280=LINE('',#678,#332);
#281=LINE('',#680,#333);
#282=LINE('',#682,#334);
#283=LINE('',#685,#335);
#284=LINE('',#687,#336);
#285=LINE('',#689,#337);
#286=LINE('',#691,#338);
#287=LINE('',#694,#339);
#288=LINE('',#696,#340);
#289=LINE('',#698,#341);
#290=LINE('',#700,#342);
#291=LINE('',#703,#343);
#292=LINE('',#705,#344);
#293=LINE('',#707,#345);
#294=LINE('',#714,#346);
#295=LINE('',#717,#347);
#296=LINE('',#718,#348);
#297=LINE('',#720,#349);
#298=LINE('',#725,#350);
#299=LINE('',#727,#351);
#300=LINE('',#729,#352);
#301=LINE('',#731,#353);
#302=LINE('',#733,#354);
#303=LINE('',#736,#355);
#304=LINE('',#737,#356);
#305=LINE('',#739,#357);
#306=LINE('',#741,#358);
#307=LINE('',#747,#359);
#308=LINE('',#749,#360);
#309=LINE('',#751,#361);
#310=LINE('',#753,#362);
#311=LINE('',#755,#363);
#312=LINE('',#757,#364);
#313=LINE('',#758,#365);
#314=LINE('',#760,#366);
#315=LINE('',#762,#367);
#316=VECTOR('',#515,1.);
#317=VECTOR('',#516,1.);
#318=VECTOR('',#517,1.);
#319=VECTOR('',#518,1.);
#320=VECTOR('',#521,1.);
#321=VECTOR('',#522,1.);
#322=VECTOR('',#523,1.);
#323=VECTOR('',#524,1.);
#324=VECTOR('',#525,1.);
#325=VECTOR('',#526,1.);
#326=VECTOR('',#527,1.);
#327=VECTOR('',#528,1.);
#328=VECTOR('',#531,1.);
#329=VECTOR('',#532,1.);
#330=VECTOR('',#533,1.);
#331=VECTOR('',#536,1.);
#332=VECTOR('',#539,1.);
#333=VECTOR('',#540,1.);
#334=VECTOR('',#543,1.);
#335=VECTOR('',#544,1.);
#336=VECTOR('',#545,1.);
#337=VECTOR('',#546,1.);
#338=VECTOR('',#549,1.);
#339=VECTOR('',#550,1.);
#340=VECTOR('',#551,1.);
#341=VECTOR('',#552,1.);
#342=VECTOR('',#555,1.);
#343=VECTOR('',#556,1.);
#344=VECTOR('',#557,1.);
#345=VECTOR('',#558,1.);
#346=VECTOR('',#571,1.);
#347=VECTOR('',#572,1.);
#348=VECTOR('',#573,1.);
#349=VECTOR('',#576,1.);
#350=VECTOR('',#581,1.);
#351=VECTOR('',#582,1.);
#352=VECTOR('',#585,1.);
#353=VECTOR('',#586,1.);
#354=VECTOR('',#589,1.);
#355=VECTOR('',#594,1.);
#356=VECTOR('',#595,1.);
#357=VECTOR('',#598,1.);
#358=VECTOR('',#601,1.);
#359=VECTOR('',#612,1.);
#360=VECTOR('',#613,1.);
#361=VECTOR('',#614,1.);
#362=VECTOR('',#615,1.);
#363=VECTOR('',#616,1.);
#364=VECTOR('',#619,1.);
#365=VECTOR('',#620,1.);
#366=VECTOR('',#623,1.);
#367=VECTOR('',#626,1.);
#368=EDGE_LOOP('',(#30,#31,#32,#33));
#369=EDGE_LOOP('',(#34,#35,#36,#37));
#370=EDGE_LOOP('',(#38,#39,#40,#41));
#371=EDGE_LOOP('',(#42,#43,#44,#45,#46,#47,#48,#49));
#372=EDGE_LOOP('',(#50,#51,#52,#53));
#373=EDGE_LOOP('',(#54,#55,#56,#57));
#374=EDGE_LOOP('',(#58,#59,#60,#61));
#375=EDGE_LOOP('',(#62,#63,#64,#65,#66,#67,#68,#69));
#376=EDGE_LOOP('',(#70,#71,#72,#73));
#377=EDGE_LOOP('',(#74,#75,#76,#77));
#378=EDGE_LOOP('',(#78,#79,#80,#81));
#379=EDGE_LOOP('',(#82,#83,#84,#85));
#380=EDGE_LOOP('',(#86,#87,#88,#89));
#381=EDGE_LOOP('',(#90,#91,#92,#93));
#382=EDGE_LOOP('',(#94,#95,#96,#97,#98));
#383=EDGE_LOOP('',(#99,#100,#101,#102));
#384=EDGE_LOOP('',(#103,#104,#105,#106,#107));
#385=EDGE_LOOP('',(#108,#109,#110,#111,#112,#113,#114,#115,#116,#117,#118,
#119,#120,#121,#122,#123));
#386=EDGE_LOOP('',(#124,#125,#126,#127));
#387=EDGE_LOOP('',(#128,#129,#130,#131));
#388=EDGE_LOOP('',(#132,#133,#134,#135,#136,#137));
#389=EDGE_LOOP('',(#138,#139,#140,#141));
#390=EDGE_LOOP('',(#142,#143,#144,#145));
#391=EDGE_LOOP('',(#146,#147,#148,#149));
#392=EDGE_LOOP('',(#150,#151,#152,#153));
#393=EDGE_LOOP('',(#154,#155,#156,#157));
#394=FACE_BOUND('',#368,.T.);
#395=FACE_BOUND('',#369,.T.);
#396=FACE_BOUND('',#370,.T.);
#397=FACE_BOUND('',#371,.T.);
#398=FACE_BOUND('',#372,.T.);
#399=FACE_BOUND('',#373,.T.);
#400=FACE_BOUND('',#374,.T.);
#401=FACE_BOUND('',#375,.T.);
#402=FACE_BOUND('',#376,.T.);
#403=FACE_BOUND('',#377,.T.);
#404=FACE_BOUND('',#378,.T.);
#405=FACE_BOUND('',#379,.T.);
#406=FACE_BOUND('',#380,.T.);
#407=FACE_BOUND('',#381,.T.);
#408=FACE_BOUND('',#382,.T.);
#409=FACE_BOUND('',#383,.T.);
#410=FACE_BOUND('',#384,.T.);
#411=FACE_BOUND('',#385,.T.);
#412=FACE_BOUND('',#386,.T.);
#413=FACE_BOUND('',#387,.T.);
#414=FACE_BOUND('',#388,.T.);
#415=FACE_BOUND('',#389,.T.);
#416=FACE_BOUND('',#390,.T.);
#417=FACE_BOUND('',#391,.T.);
#418=FACE_BOUND('',#392,.T.);
#419=FACE_BOUND('',#393,.T.);
#420=PLANE('',#475);
#421=PLANE('',#476);
#422=PLANE('',#477);
#423=PLANE('',#480);
#424=PLANE('',#481);
#425=PLANE('',#482);
#426=PLANE('',#483);
#427=PLANE('',#488);
#428=PLANE('',#489);
#429=PLANE('',#492);
#430=PLANE('',#493);
#431=PLANE('',#494);
#432=PLANE('',#496);
#433=PLANE('',#498);
#434=PLANE('',#503);
#435=PLANE('',#504);
#436=PLANE('',#505);
#437=PLANE('',#506);
#438=ADVANCED_FACE('',(#394),#420,.T.);
#439=ADVANCED_FACE('',(#395,#396),#421,.T.);
#440=ADVANCED_FACE('',(#397),#422,.F.);
#441=ADVANCED_FACE('',(#398),#423,.T.);
#442=ADVANCED_FACE('',(#399),#424,.T.);
#443=ADVANCED_FACE('',(#400),#425,.F.);
#444=ADVANCED_FACE('',(#401),#426,.F.);
#445=ADVANCED_FACE('',(#402),#427,.T.);
#446=ADVANCED_FACE('',(#403,#404),#428,.F.);
#447=ADVANCED_FACE('',(#405),#429,.F.);
#448=ADVANCED_FACE('',(#406),#430,.T.);
#449=ADVANCED_FACE('',(#407),#431,.T.);
#450=ADVANCED_FACE('',(#408),#12,.F.);
#451=ADVANCED_FACE('',(#409),#432,.F.);
#452=ADVANCED_FACE('',(#410),#13,.F.);
#453=ADVANCED_FACE('',(#411),#433,.T.);
#454=ADVANCED_FACE('',(#412),#434,.T.);
#455=ADVANCED_FACE('',(#413),#435,.F.);
#456=ADVANCED_FACE('',(#414),#436,.F.);
#457=ADVANCED_FACE('',(#415),#437,.T.);
#458=ADVANCED_FACE('',(#416),#14,.T.);
#459=ADVANCED_FACE('',(#417),#15,.T.);
#460=ADVANCED_FACE('',(#418),#16,.T.);
#461=ADVANCED_FACE('',(#419),#17,.T.);
#462=CLOSED_SHELL('',(#438,#439,#440,#441,#442,#443,#444,#445,#446,#447,
#448,#449,#450,#451,#452,#453,#454,#455,#456,#457,#458,#459,#460,#461));
#463=STYLED_ITEM('',(#464),#471);
#464=PRESENTATION_STYLE_ASSIGNMENT((#465));
#465=SURFACE_STYLE_USAGE(.BOTH.,#466);
#466=SURFACE_SIDE_STYLE('',(#467));
#467=SURFACE_STYLE_FILL_AREA(#468);
#468=FILL_AREA_STYLE('',(#469));
#469=FILL_AREA_STYLE_COLOUR('',#470);
#470=COLOUR_RGB('',0.615686274509804,0.811764705882353,0.929411764705882);
#471=MANIFOLD_SOLID_BREP('Case Bottom',#462);
#472=SHAPE_DEFINITION_REPRESENTATION(#774,#473);
#473=SHAPE_REPRESENTATION('Case Bottom',(#474),#769);
#474=AXIS2_PLACEMENT_3D('',#637,#511,#512);
#475=AXIS2_PLACEMENT_3D('',#638,#513,#514);
#476=AXIS2_PLACEMENT_3D('',#647,#519,#520);
#477=AXIS2_PLACEMENT_3D('',#664,#529,#530);
#478=AXIS2_PLACEMENT_3D('',#672,#534,#535);
#479=AXIS2_PLACEMENT_3D('',#676,#537,#538);
#480=AXIS2_PLACEMENT_3D('',#681,#541,#542);
#481=AXIS2_PLACEMENT_3D('',#690,#547,#548);
#482=AXIS2_PLACEMENT_3D('',#699,#553,#554);
#483=AXIS2_PLACEMENT_3D('',#708,#559,#560);
#484=AXIS2_PLACEMENT_3D('',#709,#561,#562);
#485=AXIS2_PLACEMENT_3D('',#710,#563,#564);
#486=AXIS2_PLACEMENT_3D('',#711,#565,#566);
#487=AXIS2_PLACEMENT_3D('',#712,#567,#568);
#488=AXIS2_PLACEMENT_3D('',#713,#569,#570);
#489=AXIS2_PLACEMENT_3D('',#719,#574,#575);
#490=AXIS2_PLACEMENT_3D('',#723,#577,#578);
#491=AXIS2_PLACEMENT_3D('',#724,#579,#580);
#492=AXIS2_PLACEMENT_3D('',#728,#583,#584);
#493=AXIS2_PLACEMENT_3D('',#732,#587,#588);
#494=AXIS2_PLACEMENT_3D('',#734,#590,#591);
#495=AXIS2_PLACEMENT_3D('',#735,#592,#593);
#496=AXIS2_PLACEMENT_3D('',#738,#596,#597);
#497=AXIS2_PLACEMENT_3D('',#740,#599,#600);
#498=AXIS2_PLACEMENT_3D('',#742,#602,#603);
#499=AXIS2_PLACEMENT_3D('',#743,#604,#605);
#500=AXIS2_PLACEMENT_3D('',#744,#606,#607);
#501=AXIS2_PLACEMENT_3D('',#745,#608,#609);
#502=AXIS2_PLACEMENT_3D('',#746,#610,#611);
#503=AXIS2_PLACEMENT_3D('',#756,#617,#618);
#504=AXIS2_PLACEMENT_3D('',#759,#621,#622);
#505=AXIS2_PLACEMENT_3D('',#761,#624,#625);
#506=AXIS2_PLACEMENT_3D('',#763,#627,#628);
#507=AXIS2_PLACEMENT_3D('',#764,#629,#630);
#508=AXIS2_PLACEMENT_3D('',#765,#631,#632);
#509=AXIS2_PLACEMENT_3D('',#766,#633,#634);
#510=AXIS2_PLACEMENT_3D('',#767,#635,#636);
#511=DIRECTION('',(0.,0.,1.));
#512=DIRECTION('',(1.,0.,0.));
#513=DIRECTION('',(0.,0.,-1.));
#514=DIRECTION('',(-1.,0.,0.));
#515=DIRECTION('',(0.,1.,0.));
#516=DIRECTION('',(1.,0.,0.));
#517=DIRECTION('',(0.,1.,0.));
#518=DIRECTION('',(1.,0.,0.));
#519=DIRECTION('',(0.,0.,1.));
#520=DIRECTION('',(1.,0.,0.));
#521=DIRECTION('',(6.13286077365538E-17,-1.,0.));
#522=DIRECTION('',(1.,0.,0.));
#523=DIRECTION('',(0.,-1.,0.));
#524=DIRECTION('',(1.,0.,0.));
#525=DIRECTION('',(-1.84636409571789E-16,1.,0.));
#526=DIRECTION('',(1.,0.,0.));
#527=DIRECTION('',(0.,1.,0.));
#528=DIRECTION('',(1.,0.,0.));
#529=DIRECTION('',(0.,-1.,0.));
#530=DIRECTION('',(0.,0.,-1.));
#531=DIRECTION('',(1.,0.,0.));
#532=DIRECTION('',(0.,0.,1.));
#533=DIRECTION('',(1.,0.,0.));
#534=DIRECTION('',(0.,1.,0.));
#535=DIRECTION('',(0.,0.,1.));
#536=DIRECTION('',(-1.,0.,0.));
#537=DIRECTION('',(0.,1.,0.));
#538=DIRECTION('',(0.,0.,1.));
#539=DIRECTION('',(1.,0.,0.));
#540=DIRECTION('',(0.,0.,1.));
#541=DIRECTION('',(-1.,0.,0.));
#542=DIRECTION('',(0.,0.,1.));
#543=DIRECTION('',(0.,-1.,0.));
#544=DIRECTION('',(0.,0.,1.));
#545=DIRECTION('',(0.,-1.,0.));
#546=DIRECTION('',(0.,0.,1.));
#547=DIRECTION('',(0.,-1.,0.));
#548=DIRECTION('',(0.,0.,-1.));
#549=DIRECTION('',(1.,0.,0.));
#550=DIRECTION('',(0.,0.,1.));
#551=DIRECTION('',(1.,0.,0.));
#552=DIRECTION('',(0.,0.,1.));
#553=DIRECTION('',(-1.,0.,0.));
#554=DIRECTION('',(0.,0.,1.));
#555=DIRECTION('',(0.,-1.,0.));
#556=DIRECTION('',(0.,0.,1.));
#557=DIRECTION('',(0.,-1.,0.));
#558=DIRECTION('',(0.,0.,1.));
#559=DIRECTION('',(0.,0.,1.));
#560=DIRECTION('',(1.,0.,0.));
#561=DIRECTION('',(0.,0.,1.));
#562=DIRECTION('',(1.,0.,0.));
#563=DIRECTION('',(0.,0.,1.));
#564=DIRECTION('',(1.,0.,0.));
#565=DIRECTION('',(0.,0.,1.));
#566=DIRECTION('',(1.,0.,0.));
#567=DIRECTION('',(0.,0.,1.));
#568=DIRECTION('',(1.,0.,0.));
#569=DIRECTION('',(1.,6.13286077365538E-17,0.));
#570=DIRECTION('',(-6.13286077365538E-17,1.,0.));
#571=DIRECTION('',(6.13286077365538E-17,-1.,0.));
#572=DIRECTION('',(0.,0.,-1.));
#573=DIRECTION('',(0.,0.,-1.));
#574=DIRECTION('',(0.,1.,0.));
#575=DIRECTION('',(0.,0.,1.));
#576=DIRECTION('',(1.,0.,0.));
#577=DIRECTION('',(0.,1.,0.));
#578=DIRECTION('',(0.,0.,1.));
#579=DIRECTION('',(0.,1.,0.));
#580=DIRECTION('',(0.,0.,1.));
#581=DIRECTION('',(1.,0.,0.));
#582=DIRECTION('',(0.,0.,-1.));
#583=DIRECTION('',(1.,0.,0.));
#584=DIRECTION('',(0.,0.,-1.));
#585=DIRECTION('',(0.,-1.,0.));
#586=DIRECTION('',(0.,0.,-1.));
#587=DIRECTION('',(0.,1.,0.));
#588=DIRECTION('',(0.,0.,1.));
#589=DIRECTION('',(1.,0.,0.));
#590=DIRECTION('',(0.,0.,1.));
#591=DIRECTION('',(1.,0.,0.));
#592=DIRECTION('',(0.,1.,0.));
#593=DIRECTION('',(0.,0.,1.));
#594=DIRECTION('',(0.,1.,0.));
#595=DIRECTION('',(0.,1.,0.));
#596=DIRECTION('',(0.,0.,-1.));
#597=DIRECTION('',(-1.,0.,0.));
#598=DIRECTION('',(0.,1.,0.));
#599=DIRECTION('',(0.,1.,0.));
#600=DIRECTION('',(0.,0.,1.));
#601=DIRECTION('',(0.,1.,0.));
#602=DIRECTION('',(0.,0.,1.));
#603=DIRECTION('',(1.,0.,0.));
#604=DIRECTION('',(0.,0.,1.));
#605=DIRECTION('',(1.,0.,0.));
#606=DIRECTION('',(0.,0.,1.));
#607=DIRECTION('',(1.,0.,0.));
#608=DIRECTION('',(0.,0.,1.));
#609=DIRECTION('',(1.,0.,0.));
#610=DIRECTION('',(0.,0.,1.));
#611=DIRECTION('',(1.,0.,0.));
#612=DIRECTION('',(1.,0.,0.));
#613=DIRECTION('',(0.,1.,0.));
#614=DIRECTION('',(1.,0.,0.));
#615=DIRECTION('',(-1.84636409571789E-16,1.,0.));
#616=DIRECTION('',(1.,0.,0.));
#617=DIRECTION('',(0.,-1.,0.));
#618=DIRECTION('',(0.,0.,-1.));
#619=DIRECTION('',(0.,0.,1.));
#620=DIRECTION('',(0.,0.,1.));
#621=DIRECTION('',(1.,1.84636409571789E-16,0.));
#622=DIRECTION('',(-1.84636409571789E-16,1.,0.));
#623=DIRECTION('',(0.,0.,1.));
#624=DIRECTION('',(0.,-1.,0.));
#625=DIRECTION('',(0.,0.,-1.));
#626=DIRECTION('',(0.,0.,1.));
#627=DIRECTION('',(1.,0.,0.));
#628=DIRECTION('',(0.,0.,-1.));
#629=DIRECTION('',(0.,0.,-1.));
#630=DIRECTION('',(-1.,0.,0.));
#631=DIRECTION('',(0.,0.,1.));
#632=DIRECTION('',(1.,0.,0.));
#633=DIRECTION('',(0.,0.,-1.));
#634=DIRECTION('',(-1.,0.,0.));
#635=DIRECTION('',(0.,0.,1.));
#636=DIRECTION('',(1.,0.,0.));
#637=CARTESIAN_POINT('',(0.,0.,0.));
#638=CARTESIAN_POINT('',(0.3227,-0.103002,0.008));
#639=CARTESIAN_POINT('',(0.3204,-0.103002,0.008));
#640=CARTESIAN_POINT('',(0.3204,-0.00199999999999996,0.008));
#641=CARTESIAN_POINT('',(0.3204,-0.000999999999999969,0.008));
#642=CARTESIAN_POINT('',(0.169,-0.000999999999999969,0.008));
#643=CARTESIAN_POINT('',(0.325,-0.000999999999999959,0.008));
#644=CARTESIAN_POINT('',(0.325,-0.103002,0.008));
#645=CARTESIAN_POINT('',(0.325,-0.00199999999999996,0.008));
#646=CARTESIAN_POINT('',(0.3227,-0.00199999999999996,0.008));
#647=CARTESIAN_POINT('',(0.169,-0.0515,0.012));
#648=CARTESIAN_POINT('',(0.002,-0.0515,0.012));
#649=CARTESIAN_POINT('',(0.002,-0.00199999999999996,0.012));
#650=CARTESIAN_POINT('',(0.002,-0.101,0.012));
#651=CARTESIAN_POINT('',(0.169,-0.00199999999999996,0.012));
#652=CARTESIAN_POINT('',(0.336,-0.00199999999999996,0.012));
#653=CARTESIAN_POINT('',(0.336,-0.0515,0.012));
#654=CARTESIAN_POINT('',(0.336,-0.101,0.012));
#655=CARTESIAN_POINT('',(0.169,-0.101,0.012));
#656=CARTESIAN_POINT('',(0.001,-0.0515,0.012));
#657=CARTESIAN_POINT('',(0.00100000000000003,-0.102,0.012));
#658=CARTESIAN_POINT('',(0.001,-0.000999999999999969,0.012));
#659=CARTESIAN_POINT('',(0.169,-0.102,0.012));
#660=CARTESIAN_POINT('',(0.337,-0.102,0.012));
#661=CARTESIAN_POINT('',(0.337,-0.0515,0.012));
#662=CARTESIAN_POINT('',(0.337,-0.000999999999999959,0.012));
#663=CARTESIAN_POINT('',(0.169,-0.000999999999999969,0.012));
#664=CARTESIAN_POINT('',(0.169,0.,-0.004));
#665=CARTESIAN_POINT('',(0.169,0.,-0.004));
#666=CARTESIAN_POINT('',(0.00168994949366116,0.,-0.004));
#667=CARTESIAN_POINT('',(0.336310050506339,0.,-0.004));
#668=CARTESIAN_POINT('',(0.00168994949366116,0.,0.008));
#669=CARTESIAN_POINT('',(0.00168994949366116,0.,0.008));
#670=CARTESIAN_POINT('',(0.169,0.,0.008));
#671=CARTESIAN_POINT('',(0.3204,0.,0.008));
#672=CARTESIAN_POINT('',(0.3204,0.,0.00642105426208351));
#673=CARTESIAN_POINT('',(0.3204,0.,0.00484210852416703));
#674=CARTESIAN_POINT('',(0.3227,0.,0.00484210852416703));
#675=CARTESIAN_POINT('',(0.325,0.,0.00484210852416704));
#676=CARTESIAN_POINT('',(0.325,0.,0.00642105426208351));
#677=CARTESIAN_POINT('',(0.325,0.,0.008));
#678=CARTESIAN_POINT('',(0.169,0.,0.008));
#679=CARTESIAN_POINT('',(0.336310050506339,0.,0.008));
#680=CARTESIAN_POINT('',(0.336310050506339,0.,-0.004));
#681=CARTESIAN_POINT('',(0.,-0.0515,-0.004));
#682=CARTESIAN_POINT('',(0.,-0.0515,0.008));
#683=CARTESIAN_POINT('',(0.,-0.00168994949366116,0.008));
#684=CARTESIAN_POINT('',(0.,-0.101310050506339,0.008));
#685=CARTESIAN_POINT('',(0.,-0.00168994949366116,-0.004));
#686=CARTESIAN_POINT('',(0.,-0.00168994949366116,-0.004));
#687=CARTESIAN_POINT('',(0.,-0.0515,-0.004));
#688=CARTESIAN_POINT('',(0.,-0.101310050506339,-0.004));
#689=CARTESIAN_POINT('',(0.,-0.101310050506339,-0.004));
#690=CARTESIAN_POINT('',(0.169,-0.103,-0.004));
#691=CARTESIAN_POINT('',(0.169,-0.103,-0.004));
#692=CARTESIAN_POINT('',(0.00168994949366116,-0.103,-0.004));
#693=CARTESIAN_POINT('',(0.336310050506339,-0.103,-0.004));
#694=CARTESIAN_POINT('',(0.336310050506339,-0.103,0.008));
#695=CARTESIAN_POINT('',(0.336310050506339,-0.103,0.008));
#696=CARTESIAN_POINT('',(0.169,-0.103,0.008));
#697=CARTESIAN_POINT('',(0.00168994949366116,-0.103,0.008));
#698=CARTESIAN_POINT('',(0.00168994949366116,-0.103,-0.004));
#699=CARTESIAN_POINT('',(0.338,-0.0515,-0.004));
#700=CARTESIAN_POINT('',(0.338,-0.0515,-0.004));
#701=CARTESIAN_POINT('',(0.338,-0.00168994949366116,-0.004));
#702=CARTESIAN_POINT('',(0.338,-0.101310050506339,-0.004));
#703=CARTESIAN_POINT('',(0.338,-0.00168994949366116,-0.004));
#704=CARTESIAN_POINT('',(0.338,-0.00168994949366116,0.008));
#705=CARTESIAN_POINT('',(0.338,-0.0515,0.008));
#706=CARTESIAN_POINT('',(0.338,-0.101310050506339,0.008));
#707=CARTESIAN_POINT('',(0.338,-0.101310050506339,-0.004));
#708=CARTESIAN_POINT('',(0.169,-0.0515,-0.004));
#709=CARTESIAN_POINT('',(0.00168994949366116,-0.00168994949366116,-0.004));
#710=CARTESIAN_POINT('',(0.336310050506339,-0.00168994949366116,-0.004));
#711=CARTESIAN_POINT('',(0.336310050506339,-0.101310050506339,-0.004));
#712=CARTESIAN_POINT('',(0.00168994949366116,-0.101310050506339,-0.004));
#713=CARTESIAN_POINT('',(0.002,-0.0515,0.012));
#714=CARTESIAN_POINT('',(0.002,-0.0515,0.));
#715=CARTESIAN_POINT('',(0.002,-0.00199999999999996,0.));
#716=CARTESIAN_POINT('',(0.002,-0.101,0.));
#717=CARTESIAN_POINT('',(0.002,-0.00199999999999996,0.012));
#718=CARTESIAN_POINT('',(0.002,-0.101,0.012));
#719=CARTESIAN_POINT('',(0.169,-0.00199999999999996,0.012));
#720=CARTESIAN_POINT('',(0.3227,-0.00199999999999996,0.00484210852416703));
#721=CARTESIAN_POINT('',(0.3204,-0.00199999999999996,0.00484210852416703));
#722=CARTESIAN_POINT('',(0.325,-0.00199999999999996,0.00484210852416704));
#723=CARTESIAN_POINT('',(0.3204,-0.00199999999999996,0.00642105426208351));
#724=CARTESIAN_POINT('',(0.325,-0.00199999999999996,0.00642105426208351));
#725=CARTESIAN_POINT('',(0.169,-0.00199999999999996,0.));
#726=CARTESIAN_POINT('',(0.336,-0.00199999999999996,0.));
#727=CARTESIAN_POINT('',(0.336,-0.00199999999999996,0.012));
#728=CARTESIAN_POINT('',(0.336,-0.0515,0.012));
#729=CARTESIAN_POINT('',(0.336,-0.0515,0.));
#730=CARTESIAN_POINT('',(0.336,-0.101,0.));
#731=CARTESIAN_POINT('',(0.336,-0.101,0.012));
#732=CARTESIAN_POINT('',(0.169,-0.101,0.012));
#733=CARTESIAN_POINT('',(0.169,-0.101,0.));
#734=CARTESIAN_POINT('',(0.169,-0.0515,0.));
#735=CARTESIAN_POINT('',(0.3204,-0.103002,0.00642105426208351));
#736=CARTESIAN_POINT('',(0.3204,-0.103002,0.00484210852416703));
#737=CARTESIAN_POINT('',(0.3204,-0.103002,0.008));
#738=CARTESIAN_POINT('',(0.3227,-0.103002,0.00484210852416703));
#739=CARTESIAN_POINT('',(0.325,-0.103002,0.00484210852416704));
#740=CARTESIAN_POINT('',(0.325,-0.103002,0.00642105426208351));
#741=CARTESIAN_POINT('',(0.325,-0.103002,0.008));
#742=CARTESIAN_POINT('',(0.169,-0.0515,0.008));
#743=CARTESIAN_POINT('',(0.00168994949366116,-0.00168994949366116,0.008));
#744=CARTESIAN_POINT('',(0.00168994949366116,-0.101310050506339,0.008));
#745=CARTESIAN_POINT('',(0.336310050506339,-0.101310050506339,0.008));
#746=CARTESIAN_POINT('',(0.336310050506339,-0.00168994949366116,0.008));
#747=CARTESIAN_POINT('',(0.169,-0.000999999999999969,0.008));
#748=CARTESIAN_POINT('',(0.337,-0.000999999999999959,0.008));
#749=CARTESIAN_POINT('',(0.337,-0.0515,0.008));
#750=CARTESIAN_POINT('',(0.337,-0.102,0.008));
#751=CARTESIAN_POINT('',(0.169,-0.102,0.008));
#752=CARTESIAN_POINT('',(0.00100000000000003,-0.102,0.008));
#753=CARTESIAN_POINT('',(0.001,-0.0515,0.008));
#754=CARTESIAN_POINT('',(0.001,-0.000999999999999969,0.008));
#755=CARTESIAN_POINT('',(0.169,-0.000999999999999969,0.008));
#756=CARTESIAN_POINT('',(0.169,-0.102,0.008));
#757=CARTESIAN_POINT('',(0.00100000000000003,-0.102,0.008));
#758=CARTESIAN_POINT('',(0.337,-0.102,0.008));
#759=CARTESIAN_POINT('',(0.001,-0.0515,0.008));
#760=CARTESIAN_POINT('',(0.001,-0.000999999999999969,0.008));
#761=CARTESIAN_POINT('',(0.169,-0.000999999999999969,0.008));
#762=CARTESIAN_POINT('',(0.337,-0.000999999999999959,0.008));
#763=CARTESIAN_POINT('',(0.337,-0.0515,0.008));
#764=CARTESIAN_POINT('',(0.00168994949366116,-0.00168994949366116,-0.004));
#765=CARTESIAN_POINT('',(0.336310050506339,-0.00168994949366116,-0.004));
#766=CARTESIAN_POINT('',(0.336310050506339,-0.101310050506339,-0.004));
#767=CARTESIAN_POINT('',(0.00168994949366116,-0.101310050506339,-0.004));
#768=MECHANICAL_DESIGN_GEOMETRIC_PRESENTATION_REPRESENTATION('',(#463),
#769);
#769=(
GEOMETRIC_REPRESENTATION_CONTEXT(3)
GLOBAL_UNCERTAINTY_ASSIGNED_CONTEXT((#770))
GLOBAL_UNIT_ASSIGNED_CONTEXT((#773,#772,#771))
REPRESENTATION_CONTEXT('Case Bottom','TOP_LEVEL_ASSEMBLY_PART')
);
#770=UNCERTAINTY_MEASURE_WITH_UNIT(LENGTH_MEASURE(1.E-8),#773,
'DISTANCE_ACCURACY_VALUE','Maximum Tolerance applied to model');
#771=(
NAMED_UNIT(*)
SI_UNIT($,.STERADIAN.)
SOLID_ANGLE_UNIT()
);
#772=(
NAMED_UNIT(*)
PLANE_ANGLE_UNIT()
SI_UNIT($,.RADIAN.)
);
#773=(
LENGTH_UNIT()
NAMED_UNIT(*)
SI_UNIT($,.METRE.)
);
#774=PRODUCT_DEFINITION_SHAPE('','',#775);
#775=PRODUCT_DEFINITION('','',#777,#776);
#776=PRODUCT_DEFINITION_CONTEXT('',#783,'design');
#777=PRODUCT_DEFINITION_FORMATION_WITH_SPECIFIED_SOURCE('','',#779,
 .NOT_KNOWN.);
#778=PRODUCT_RELATED_PRODUCT_CATEGORY('','',(#779));
#779=PRODUCT('Case Bottom','Case Bottom','Case Bottom',(#781));
#780=PRODUCT_CATEGORY('','');
#781=PRODUCT_CONTEXT('',#783,'mechanical');
#782=APPLICATION_PROTOCOL_DEFINITION('international standard',
'ap242_managed_model_based_3d_engineering',2020,#783);
#783=APPLICATION_CONTEXT('managed model based 3d engineering');
ENDSEC;
END-ISO-10303-21;
